<mxfile host="app.diagrams.net" agent="Mozilla/5.0 (Windows NT 10.0; Win64; x64) AppleWebKit/537.36 (KHTML, like Gecko) Chrome/131.0.0.0 Safari/537.36" version="25.0.1">
  <diagram id="C5RBs43oDa-KdzZeNtuy" name="Page-1">
    <mxGraphModel dx="942" dy="482" grid="1" gridSize="10" guides="1" tooltips="1" connect="1" arrows="1" fold="1" page="1" pageScale="1" pageWidth="827" pageHeight="1169" math="0" shadow="0">
      <root>
        <mxCell id="WIyWlLk6GJQsqaUBKTNV-0" />
        <mxCell id="WIyWlLk6GJQsqaUBKTNV-1" parent="WIyWlLk6GJQsqaUBKTNV-0" />
        <mxCell id="RuUieXmoUpE6GKHFC8Cu-0" value="&lt;h1 style=&quot;margin-top: 0px;&quot;&gt;Steps&lt;/h1&gt;&lt;div&gt;&lt;br&gt;&lt;/div&gt;&lt;div&gt;step1 : print &quot;Mohammed&quot;&lt;/div&gt;" style="text;html=1;whiteSpace=wrap;overflow=hidden;rounded=0;" vertex="1" parent="WIyWlLk6GJQsqaUBKTNV-1">
          <mxGeometry x="550" y="50" width="180" height="120" as="geometry" />
        </mxCell>
        <mxCell id="RuUieXmoUpE6GKHFC8Cu-1" value="" style="rounded=0;whiteSpace=wrap;html=1;fillColor=none;" vertex="1" parent="WIyWlLk6GJQsqaUBKTNV-1">
          <mxGeometry x="520" y="40" width="250" height="130" as="geometry" />
        </mxCell>
        <mxCell id="RuUieXmoUpE6GKHFC8Cu-3" value="print &quot;Mohammed&quot;" style="shape=parallelogram;perimeter=parallelogramPerimeter;whiteSpace=wrap;html=1;fixedSize=1;" vertex="1" parent="WIyWlLk6GJQsqaUBKTNV-1">
          <mxGeometry x="560" y="300" width="140" height="40" as="geometry" />
        </mxCell>
        <mxCell id="RuUieXmoUpE6GKHFC8Cu-7" style="edgeStyle=orthogonalEdgeStyle;rounded=0;orthogonalLoop=1;jettySize=auto;html=1;exitX=0.5;exitY=1;exitDx=0;exitDy=0;exitPerimeter=0;entryX=0.5;entryY=0;entryDx=0;entryDy=0;" edge="1" parent="WIyWlLk6GJQsqaUBKTNV-1" source="RuUieXmoUpE6GKHFC8Cu-4" target="RuUieXmoUpE6GKHFC8Cu-3">
          <mxGeometry relative="1" as="geometry" />
        </mxCell>
        <mxCell id="RuUieXmoUpE6GKHFC8Cu-4" value="Start" style="strokeWidth=2;html=1;shape=mxgraph.flowchart.terminator;whiteSpace=wrap;" vertex="1" parent="WIyWlLk6GJQsqaUBKTNV-1">
          <mxGeometry x="550" y="200" width="160" height="60" as="geometry" />
        </mxCell>
        <mxCell id="RuUieXmoUpE6GKHFC8Cu-5" value="END" style="strokeWidth=2;html=1;shape=mxgraph.flowchart.terminator;whiteSpace=wrap;" vertex="1" parent="WIyWlLk6GJQsqaUBKTNV-1">
          <mxGeometry x="550" y="380" width="160" height="60" as="geometry" />
        </mxCell>
        <mxCell id="RuUieXmoUpE6GKHFC8Cu-9" style="edgeStyle=orthogonalEdgeStyle;rounded=0;orthogonalLoop=1;jettySize=auto;html=1;entryX=0.5;entryY=0;entryDx=0;entryDy=0;entryPerimeter=0;" edge="1" parent="WIyWlLk6GJQsqaUBKTNV-1" source="RuUieXmoUpE6GKHFC8Cu-3" target="RuUieXmoUpE6GKHFC8Cu-5">
          <mxGeometry relative="1" as="geometry" />
        </mxCell>
        <mxCell id="RuUieXmoUpE6GKHFC8Cu-20" value="" style="edgeStyle=orthogonalEdgeStyle;rounded=0;orthogonalLoop=1;jettySize=auto;html=1;entryX=0.522;entryY=0.242;entryDx=0;entryDy=0;entryPerimeter=0;" edge="1" parent="WIyWlLk6GJQsqaUBKTNV-1" source="RuUieXmoUpE6GKHFC8Cu-12" target="RuUieXmoUpE6GKHFC8Cu-18">
          <mxGeometry relative="1" as="geometry" />
        </mxCell>
        <mxCell id="RuUieXmoUpE6GKHFC8Cu-12" value="Read name" style="shape=parallelogram;perimeter=parallelogramPerimeter;whiteSpace=wrap;html=1;fixedSize=1;" vertex="1" parent="WIyWlLk6GJQsqaUBKTNV-1">
          <mxGeometry x="60" y="300" width="140" height="30" as="geometry" />
        </mxCell>
        <mxCell id="RuUieXmoUpE6GKHFC8Cu-13" style="edgeStyle=orthogonalEdgeStyle;rounded=0;orthogonalLoop=1;jettySize=auto;html=1;exitX=0.5;exitY=1;exitDx=0;exitDy=0;exitPerimeter=0;entryX=0.5;entryY=0;entryDx=0;entryDy=0;" edge="1" parent="WIyWlLk6GJQsqaUBKTNV-1" source="RuUieXmoUpE6GKHFC8Cu-14" target="RuUieXmoUpE6GKHFC8Cu-12">
          <mxGeometry relative="1" as="geometry" />
        </mxCell>
        <mxCell id="RuUieXmoUpE6GKHFC8Cu-14" value="Start" style="strokeWidth=2;html=1;shape=mxgraph.flowchart.terminator;whiteSpace=wrap;" vertex="1" parent="WIyWlLk6GJQsqaUBKTNV-1">
          <mxGeometry x="65" y="240" width="130" height="30" as="geometry" />
        </mxCell>
        <mxCell id="RuUieXmoUpE6GKHFC8Cu-15" value="END" style="strokeWidth=2;html=1;shape=mxgraph.flowchart.terminator;whiteSpace=wrap;" vertex="1" parent="WIyWlLk6GJQsqaUBKTNV-1">
          <mxGeometry x="60" y="410" width="130" height="30" as="geometry" />
        </mxCell>
        <mxCell id="RuUieXmoUpE6GKHFC8Cu-17" value="&lt;h1 style=&quot;margin-top: 0px;&quot;&gt;Steps&lt;/h1&gt;&lt;p&gt;step 1 ask user&lt;/p&gt;&lt;p&gt;step 2&amp;nbsp; enter her/his name&lt;/p&gt;&lt;p&gt;step 3 print &quot;name&quot;&lt;/p&gt;" style="text;html=1;whiteSpace=wrap;overflow=hidden;rounded=0;" vertex="1" parent="WIyWlLk6GJQsqaUBKTNV-1">
          <mxGeometry x="50" y="30" width="180" height="120" as="geometry" />
        </mxCell>
        <mxCell id="RuUieXmoUpE6GKHFC8Cu-18" value="print &quot;name&quot;" style="shape=parallelogram;perimeter=parallelogramPerimeter;whiteSpace=wrap;html=1;fixedSize=1;" vertex="1" parent="WIyWlLk6GJQsqaUBKTNV-1">
          <mxGeometry x="60" y="350" width="130" height="30" as="geometry" />
        </mxCell>
        <mxCell id="RuUieXmoUpE6GKHFC8Cu-23" style="edgeStyle=orthogonalEdgeStyle;rounded=0;orthogonalLoop=1;jettySize=auto;html=1;entryX=0.5;entryY=0;entryDx=0;entryDy=0;entryPerimeter=0;" edge="1" parent="WIyWlLk6GJQsqaUBKTNV-1" source="RuUieXmoUpE6GKHFC8Cu-18" target="RuUieXmoUpE6GKHFC8Cu-15">
          <mxGeometry relative="1" as="geometry" />
        </mxCell>
        <mxCell id="RuUieXmoUpE6GKHFC8Cu-24" value="&lt;h1 style=&quot;margin-top: 0px;&quot;&gt;Steps&lt;/h1&gt;&lt;p&gt;step 1 ask user enter number&lt;/p&gt;&lt;p&gt;step 2&amp;nbsp; number % 2&amp;nbsp;&lt;/p&gt;&lt;p&gt;step 3 check if result = 0 or != 0&lt;/p&gt;&lt;p&gt;step 3 print &quot;Even&quot; or &quot;ODD&quot;&lt;/p&gt;" style="text;html=1;whiteSpace=wrap;overflow=hidden;rounded=0;" vertex="1" parent="WIyWlLk6GJQsqaUBKTNV-1">
          <mxGeometry x="560" y="700" width="180" height="150" as="geometry" />
        </mxCell>
        <mxCell id="RuUieXmoUpE6GKHFC8Cu-40" style="edgeStyle=orthogonalEdgeStyle;rounded=0;orthogonalLoop=1;jettySize=auto;html=1;exitX=0.5;exitY=1;exitDx=0;exitDy=0;exitPerimeter=0;entryX=0.5;entryY=0;entryDx=0;entryDy=0;" edge="1" parent="WIyWlLk6GJQsqaUBKTNV-1" source="RuUieXmoUpE6GKHFC8Cu-25" target="RuUieXmoUpE6GKHFC8Cu-26">
          <mxGeometry relative="1" as="geometry" />
        </mxCell>
        <mxCell id="RuUieXmoUpE6GKHFC8Cu-25" value="start" style="strokeWidth=2;html=1;shape=mxgraph.flowchart.start_1;whiteSpace=wrap;" vertex="1" parent="WIyWlLk6GJQsqaUBKTNV-1">
          <mxGeometry x="340" y="630" width="100" height="60" as="geometry" />
        </mxCell>
        <mxCell id="RuUieXmoUpE6GKHFC8Cu-39" style="edgeStyle=orthogonalEdgeStyle;rounded=0;orthogonalLoop=1;jettySize=auto;html=1;exitX=0.5;exitY=1;exitDx=0;exitDy=0;entryX=0.5;entryY=0;entryDx=0;entryDy=0;" edge="1" parent="WIyWlLk6GJQsqaUBKTNV-1" source="RuUieXmoUpE6GKHFC8Cu-26" target="RuUieXmoUpE6GKHFC8Cu-28">
          <mxGeometry relative="1" as="geometry" />
        </mxCell>
        <mxCell id="RuUieXmoUpE6GKHFC8Cu-26" value="READ NUMBER" style="shape=parallelogram;html=1;strokeWidth=2;perimeter=parallelogramPerimeter;whiteSpace=wrap;rounded=1;arcSize=12;size=0.23;" vertex="1" parent="WIyWlLk6GJQsqaUBKTNV-1">
          <mxGeometry x="310" y="710" width="160" height="60" as="geometry" />
        </mxCell>
        <mxCell id="RuUieXmoUpE6GKHFC8Cu-28" value="Result = number mod 2" style="rounded=1;whiteSpace=wrap;html=1;absoluteArcSize=1;arcSize=14;strokeWidth=2;" vertex="1" parent="WIyWlLk6GJQsqaUBKTNV-1">
          <mxGeometry x="295" y="800" width="180" height="50" as="geometry" />
        </mxCell>
        <mxCell id="RuUieXmoUpE6GKHFC8Cu-34" style="edgeStyle=orthogonalEdgeStyle;rounded=0;orthogonalLoop=1;jettySize=auto;html=1;entryX=0.5;entryY=0;entryDx=0;entryDy=0;" edge="1" parent="WIyWlLk6GJQsqaUBKTNV-1" source="RuUieXmoUpE6GKHFC8Cu-29" target="RuUieXmoUpE6GKHFC8Cu-33">
          <mxGeometry relative="1" as="geometry" />
        </mxCell>
        <mxCell id="RuUieXmoUpE6GKHFC8Cu-42" value="NO" style="edgeLabel;html=1;align=center;verticalAlign=middle;resizable=0;points=[];" vertex="1" connectable="0" parent="RuUieXmoUpE6GKHFC8Cu-34">
          <mxGeometry x="-0.3327" relative="1" as="geometry">
            <mxPoint as="offset" />
          </mxGeometry>
        </mxCell>
        <mxCell id="RuUieXmoUpE6GKHFC8Cu-35" style="edgeStyle=orthogonalEdgeStyle;rounded=0;orthogonalLoop=1;jettySize=auto;html=1;entryX=0.5;entryY=0;entryDx=0;entryDy=0;" edge="1" parent="WIyWlLk6GJQsqaUBKTNV-1" source="RuUieXmoUpE6GKHFC8Cu-29" target="RuUieXmoUpE6GKHFC8Cu-31">
          <mxGeometry relative="1" as="geometry" />
        </mxCell>
        <mxCell id="RuUieXmoUpE6GKHFC8Cu-43" value="YES" style="edgeLabel;html=1;align=center;verticalAlign=middle;resizable=0;points=[];" vertex="1" connectable="0" parent="RuUieXmoUpE6GKHFC8Cu-35">
          <mxGeometry x="-0.2667" relative="1" as="geometry">
            <mxPoint as="offset" />
          </mxGeometry>
        </mxCell>
        <mxCell id="RuUieXmoUpE6GKHFC8Cu-29" value="Result = 0&amp;nbsp;" style="strokeWidth=2;html=1;shape=mxgraph.flowchart.decision;whiteSpace=wrap;" vertex="1" parent="WIyWlLk6GJQsqaUBKTNV-1">
          <mxGeometry x="330" y="880" width="130" height="100" as="geometry" />
        </mxCell>
        <mxCell id="RuUieXmoUpE6GKHFC8Cu-30" value="END" style="strokeWidth=2;html=1;shape=mxgraph.flowchart.start_1;whiteSpace=wrap;" vertex="1" parent="WIyWlLk6GJQsqaUBKTNV-1">
          <mxGeometry x="340" y="1040" width="100" height="60" as="geometry" />
        </mxCell>
        <mxCell id="RuUieXmoUpE6GKHFC8Cu-31" value="Print &quot;EVEN &quot;" style="shape=parallelogram;html=1;strokeWidth=2;perimeter=parallelogramPerimeter;whiteSpace=wrap;rounded=1;arcSize=12;size=0.23;" vertex="1" parent="WIyWlLk6GJQsqaUBKTNV-1">
          <mxGeometry x="100" y="980" width="200" height="40" as="geometry" />
        </mxCell>
        <mxCell id="RuUieXmoUpE6GKHFC8Cu-33" value="Print &quot;ODD&quot;" style="shape=parallelogram;html=1;strokeWidth=2;perimeter=parallelogramPerimeter;whiteSpace=wrap;rounded=1;arcSize=12;size=0.23;" vertex="1" parent="WIyWlLk6GJQsqaUBKTNV-1">
          <mxGeometry x="510" y="980" width="200" height="40" as="geometry" />
        </mxCell>
        <mxCell id="RuUieXmoUpE6GKHFC8Cu-36" style="edgeStyle=orthogonalEdgeStyle;rounded=0;orthogonalLoop=1;jettySize=auto;html=1;exitX=0.5;exitY=1;exitDx=0;exitDy=0;entryX=0;entryY=0.5;entryDx=0;entryDy=0;entryPerimeter=0;" edge="1" parent="WIyWlLk6GJQsqaUBKTNV-1" source="RuUieXmoUpE6GKHFC8Cu-31" target="RuUieXmoUpE6GKHFC8Cu-30">
          <mxGeometry relative="1" as="geometry" />
        </mxCell>
        <mxCell id="RuUieXmoUpE6GKHFC8Cu-37" style="edgeStyle=orthogonalEdgeStyle;rounded=0;orthogonalLoop=1;jettySize=auto;html=1;exitX=0.5;exitY=1;exitDx=0;exitDy=0;entryX=1;entryY=0.5;entryDx=0;entryDy=0;entryPerimeter=0;" edge="1" parent="WIyWlLk6GJQsqaUBKTNV-1" source="RuUieXmoUpE6GKHFC8Cu-33" target="RuUieXmoUpE6GKHFC8Cu-30">
          <mxGeometry relative="1" as="geometry" />
        </mxCell>
        <mxCell id="RuUieXmoUpE6GKHFC8Cu-38" style="edgeStyle=orthogonalEdgeStyle;rounded=0;orthogonalLoop=1;jettySize=auto;html=1;exitX=0.5;exitY=1;exitDx=0;exitDy=0;entryX=0.5;entryY=0;entryDx=0;entryDy=0;entryPerimeter=0;" edge="1" parent="WIyWlLk6GJQsqaUBKTNV-1" source="RuUieXmoUpE6GKHFC8Cu-28" target="RuUieXmoUpE6GKHFC8Cu-29">
          <mxGeometry relative="1" as="geometry" />
        </mxCell>
      </root>
    </mxGraphModel>
  </diagram>
</mxfile>
